<svg xmlns="http://www.w3.org/2000/svg" viewBox="0 0 26 25" shape-rendering="crispEdges"><rect x="1" y="0" width="3" height="1" fill="#1C1746"/><rect x="0" y="1" width="1" height="1" fill="#1C1746"/><rect x="1" y="1" width="3" height="1" fill="#CFDDFB"/><rect x="4" y="1" width="2" height="1" fill="#1C1746"/><rect x="0" y="2" width="1" height="1" fill="#1C1746"/><rect x="1" y="2" width="5" height="1" fill="#CFDDFB"/><rect x="6" y="2" width="2" height="1" fill="#1C1746"/><rect x="1" y="3" width="1" height="1" fill="#1C1746"/><rect x="2" y="3" width="6" height="1" fill="#CFDDFB"/><rect x="8" y="3" width="2" height="1" fill="#1C1746"/><rect x="2" y="4" width="1" height="1" fill="#1C1746"/><rect x="3" y="4" width="7" height="1" fill="#CFDDFB"/><rect x="10" y="4" width="2" height="1" fill="#1C1746"/><rect x="3" y="5" width="1" height="1" fill="#1C1746"/><rect x="4" y="5" width="8" height="1" fill="#CFDDFB"/><rect x="12" y="5" width="1" height="1" fill="#1C1746"/><rect x="15" y="5" width="4" height="1" fill="#1C1746"/><rect x="4" y="6" width="1" height="1" fill="#1C1746"/><rect x="5" y="6" width="7" height="1" fill="#CFDDFB"/><rect x="12" y="6" width="1" height="1" fill="#1C1746"/><rect x="14" y="6" width="1" height="1" fill="#1C1746"/><rect x="15" y="6" width="4" height="1" fill="#AFC8F6"/><rect x="19" y="6" width="1" height="1" fill="#1C1746"/><rect x="5" y="7" width="1" height="1" fill="#1C1746"/><rect x="6" y="7" width="6" height="1" fill="#CFDDFB"/><rect x="12" y="7" width="2" height="1" fill="#1C1746"/><rect x="14" y="7" width="3" height="1" fill="#AFC8F6"/><rect x="17" y="7" width="1" height="1" fill="#1C1746"/><rect x="18" y="7" width="1" height="1" fill="#FFFDF8"/><rect x="19" y="7" width="1" height="1" fill="#AFC8F6"/><rect x="20" y="7" width="1" height="1" fill="#1C1746"/><rect x="6" y="8" width="1" height="1" fill="#1C1746"/><rect x="7" y="8" width="4" height="1" fill="#CFDDFB"/><rect x="11" y="8" width="1" height="1" fill="#1C1746"/><rect x="12" y="8" width="5" height="1" fill="#AFC8F6"/><rect x="17" y="8" width="2" height="1" fill="#1C1746"/><rect x="19" y="8" width="1" height="1" fill="#AFC8F6"/><rect x="20" y="8" width="1" height="1" fill="#1C1746"/><rect x="4" y="9" width="3" height="1" fill="#1C1746"/><rect x="7" y="9" width="3" height="1" fill="#CFDDFB"/><rect x="10" y="9" width="1" height="1" fill="#1C1746"/><rect x="11" y="9" width="7" height="1" fill="#AFC8F6"/><rect x="18" y="9" width="1" height="1" fill="#F9BF9E"/><rect x="19" y="9" width="1" height="1" fill="#AFC8F6"/><rect x="20" y="9" width="3" height="1" fill="#1C1746"/><rect x="2" y="10" width="2" height="1" fill="#1C1746"/><rect x="4" y="10" width="16" height="1" fill="#AFC8F6"/><rect x="20" y="10" width="1" height="1" fill="#1C1746"/><rect x="21" y="10" width="3" height="1" fill="#EE8654"/><rect x="24" y="10" width="1" height="1" fill="#1C1746"/><rect x="1" y="11" width="1" height="1" fill="#1C1746"/><rect x="2" y="11" width="18" height="1" fill="#AFC8F6"/><rect x="20" y="11" width="3" height="1" fill="#1C1746"/><rect x="1" y="12" width="2" height="1" fill="#1C1746"/><rect x="3" y="12" width="9" height="1" fill="#AFC8F6"/><rect x="12" y="12" width="5" height="1" fill="#FFFDF8"/><rect x="17" y="12" width="2" height="1" fill="#AFC8F6"/><rect x="19" y="12" width="1" height="1" fill="#1C1746"/><rect x="3" y="13" width="2" height="1" fill="#1C1746"/><rect x="5" y="13" width="3" height="1" fill="#AFC8F6"/><rect x="8" y="13" width="9" height="1" fill="#FFFDF8"/><rect x="17" y="13" width="1" height="1" fill="#1C1746"/><rect x="5" y="14" width="1" height="1" fill="#1C1746"/><rect x="6" y="14" width="9" height="1" fill="#FFFDF8"/><rect x="15" y="14" width="2" height="1" fill="#1C1746"/><rect x="6" y="15" width="2" height="1" fill="#1C1746"/><rect x="8" y="15" width="4" height="1" fill="#FFFDF8"/><rect x="12" y="15" width="3" height="1" fill="#1C1746"/><rect x="8" y="16" width="4" height="1" fill="#1C1746"/><rect x="10" y="17" width="1" height="1" fill="#1C1746"/><rect x="10" y="18" width="1" height="1" fill="#1C1746"/><rect x="5" y="19" width="11" height="1" fill="#1C1746"/><rect x="5" y="20" width="1" height="1" fill="#1C1746"/><rect x="6" y="20" width="9" height="1" fill="#FFFDF8"/><rect x="15" y="20" width="1" height="1" fill="#1C1746"/><rect x="5" y="21" width="1" height="1" fill="#1C1746"/><rect x="6" y="21" width="1" height="1" fill="#FFFDF8"/><rect x="7" y="21" width="1" height="1" fill="#1C1746"/><rect x="8" y="21" width="5" height="1" fill="#FFFDF8"/><rect x="13" y="21" width="1" height="1" fill="#1C1746"/><rect x="14" y="21" width="1" height="1" fill="#FFFDF8"/><rect x="15" y="21" width="1" height="1" fill="#1C1746"/><rect x="5" y="22" width="1" height="1" fill="#1C1746"/><rect x="6" y="22" width="2" height="1" fill="#FFFDF8"/><rect x="8" y="22" width="1" height="1" fill="#1C1746"/><rect x="9" y="22" width="3" height="1" fill="#FFFDF8"/><rect x="12" y="22" width="1" height="1" fill="#1C1746"/><rect x="13" y="22" width="2" height="1" fill="#FFFDF8"/><rect x="15" y="22" width="1" height="1" fill="#1C1746"/><rect x="5" y="23" width="1" height="1" fill="#1C1746"/><rect x="6" y="23" width="3" height="1" fill="#FFFDF8"/><rect x="9" y="23" width="3" height="1" fill="#1C1746"/><rect x="12" y="23" width="3" height="1" fill="#FFFDF8"/><rect x="15" y="23" width="1" height="1" fill="#1C1746"/><rect x="5" y="24" width="11" height="1" fill="#1C1746"/></svg>