<svg xmlns="http://www.w3.org/2000/svg" viewBox="0 0 46 22" shape-rendering="crispEdges"><rect x="15" y="2" width="9" height="1" fill="#1C1746"/><rect x="12" y="3" width="3" height="1" fill="#1C1746"/><rect x="15" y="3" width="9" height="1" fill="#85D2AD"/><rect x="24" y="3" width="3" height="1" fill="#1C1746"/><rect x="10" y="4" width="2" height="1" fill="#1C1746"/><rect x="12" y="4" width="13" height="1" fill="#85D2AD"/><rect x="25" y="4" width="1" height="1" fill="#1C1746"/><rect x="26" y="4" width="1" height="1" fill="#85D2AD"/><rect x="27" y="4" width="2" height="1" fill="#1C1746"/><rect x="8" y="5" width="2" height="1" fill="#1C1746"/><rect x="10" y="5" width="5" height="1" fill="#85D2AD"/><rect x="15" y="5" width="1" height="1" fill="#1C1746"/><rect x="16" y="5" width="6" height="1" fill="#85D2AD"/><rect x="22" y="5" width="4" height="1" fill="#1C1746"/><rect x="26" y="5" width="3" height="1" fill="#85D2AD"/><rect x="29" y="5" width="2" height="1" fill="#1C1746"/><rect x="7" y="6" width="1" height="1" fill="#1C1746"/><rect x="8" y="6" width="7" height="1" fill="#85D2AD"/><rect x="15" y="6" width="1" height="1" fill="#1C1746"/><rect x="16" y="6" width="15" height="1" fill="#85D2AD"/><rect x="31" y="6" width="1" height="1" fill="#1C1746"/><rect x="6" y="7" width="1" height="1" fill="#1C1746"/><rect x="7" y="7" width="5" height="1" fill="#85D2AD"/><rect x="12" y="7" width="4" height="1" fill="#1C1746"/><rect x="16" y="7" width="14" height="1" fill="#85D2AD"/><rect x="30" y="7" width="1" height="1" fill="#1C1746"/><rect x="31" y="7" width="1" height="1" fill="#85D2AD"/><rect x="32" y="7" width="1" height="1" fill="#1C1746"/><rect x="6" y="8" width="1" height="1" fill="#1C1746"/><rect x="7" y="8" width="13" height="1" fill="#85D2AD"/><rect x="20" y="8" width="1" height="1" fill="#1C1746"/><rect x="21" y="8" width="9" height="1" fill="#85D2AD"/><rect x="30" y="8" width="1" height="1" fill="#1C1746"/><rect x="31" y="8" width="1" height="1" fill="#85D2AD"/><rect x="32" y="8" width="1" height="1" fill="#1C1746"/><rect x="5" y="9" width="1" height="1" fill="#1C1746"/><rect x="6" y="9" width="14" height="1" fill="#85D2AD"/><rect x="20" y="9" width="1" height="1" fill="#1C1746"/><rect x="21" y="9" width="6" height="1" fill="#85D2AD"/><rect x="27" y="9" width="4" height="1" fill="#1C1746"/><rect x="31" y="9" width="2" height="1" fill="#85D2AD"/><rect x="33" y="9" width="1" height="1" fill="#1C1746"/><rect x="37" y="9" width="5" height="1" fill="#1C1746"/><rect x="5" y="10" width="1" height="1" fill="#1C1746"/><rect x="6" y="10" width="11" height="1" fill="#85D2AD"/><rect x="17" y="10" width="4" height="1" fill="#1C1746"/><rect x="21" y="10" width="12" height="1" fill="#85D2AD"/><rect x="33" y="10" width="1" height="1" fill="#1C1746"/><rect x="36" y="10" width="1" height="1" fill="#1C1746"/><rect x="37" y="10" width="2" height="1" fill="#85D2AD"/><rect x="39" y="10" width="1" height="1" fill="#1C1746"/><rect x="40" y="10" width="1" height="1" fill="#FFFDF8"/><rect x="41" y="10" width="1" height="1" fill="#85D2AD"/><rect x="42" y="10" width="1" height="1" fill="#1C1746"/><rect x="4" y="11" width="1" height="1" fill="#1C1746"/><rect x="5" y="11" width="29" height="1" fill="#85D2AD"/><rect x="34" y="11" width="2" height="1" fill="#1C1746"/><rect x="36" y="11" width="3" height="1" fill="#85D2AD"/><rect x="39" y="11" width="2" height="1" fill="#1C1746"/><rect x="41" y="11" width="2" height="1" fill="#85D2AD"/><rect x="43" y="11" width="1" height="1" fill="#1C1746"/><rect x="4" y="12" width="29" height="1" fill="#1C1746"/><rect x="33" y="12" width="6" height="1" fill="#85D2AD"/><rect x="39" y="12" width="2" height="1" fill="#1C1746"/><rect x="41" y="12" width="3" height="1" fill="#85D2AD"/><rect x="44" y="12" width="1" height="1" fill="#1C1746"/><rect x="4" y="13" width="1" height="1" fill="#1C1746"/><rect x="5" y="13" width="28" height="1" fill="#5FBE93"/><rect x="33" y="13" width="11" height="1" fill="#85D2AD"/><rect x="44" y="13" width="1" height="1" fill="#1C1746"/><rect x="3" y="14" width="1" height="1" fill="#1C1746"/><rect x="4" y="14" width="1" height="1" fill="#85D2AD"/><rect x="5" y="14" width="28" height="1" fill="#5FBE93"/><rect x="33" y="14" width="9" height="1" fill="#85D2AD"/><rect x="42" y="14" width="1" height="1" fill="#1C1746"/><rect x="43" y="14" width="1" height="1" fill="#85D2AD"/><rect x="44" y="14" width="1" height="1" fill="#1C1746"/><rect x="2" y="15" width="1" height="1" fill="#1C1746"/><rect x="3" y="15" width="2" height="1" fill="#85D2AD"/><rect x="5" y="15" width="28" height="1" fill="#1C1746"/><rect x="33" y="15" width="3" height="1" fill="#85D2AD"/><rect x="36" y="15" width="2" height="1" fill="#F9BF9E"/><rect x="38" y="15" width="2" height="1" fill="#85D2AD"/><rect x="40" y="15" width="2" height="1" fill="#1C1746"/><rect x="42" y="15" width="1" height="1" fill="#85D2AD"/><rect x="43" y="15" width="1" height="1" fill="#1C1746"/><rect x="0" y="16" width="5" height="1" fill="#1C1746"/><rect x="9" y="16" width="1" height="1" fill="#1C1746"/><rect x="10" y="16" width="2" height="1" fill="#85D2AD"/><rect x="12" y="16" width="1" height="1" fill="#1C1746"/><rect x="23" y="16" width="1" height="1" fill="#1C1746"/><rect x="24" y="16" width="2" height="1" fill="#85D2AD"/><rect x="26" y="16" width="1" height="1" fill="#1C1746"/><rect x="33" y="16" width="3" height="1" fill="#1C1746"/><rect x="36" y="16" width="2" height="1" fill="#F9BF9E"/><rect x="38" y="16" width="4" height="1" fill="#85D2AD"/><rect x="42" y="16" width="1" height="1" fill="#1C1746"/><rect x="4" y="17" width="1" height="1" fill="#1C1746"/><rect x="9" y="17" width="1" height="1" fill="#1C1746"/><rect x="10" y="17" width="2" height="1" fill="#85D2AD"/><rect x="12" y="17" width="1" height="1" fill="#1C1746"/><rect x="23" y="17" width="1" height="1" fill="#1C1746"/><rect x="24" y="17" width="2" height="1" fill="#85D2AD"/><rect x="26" y="17" width="1" height="1" fill="#1C1746"/><rect x="37" y="17" width="5" height="1" fill="#1C1746"/><rect x="9" y="18" width="1" height="1" fill="#1C1746"/><rect x="10" y="18" width="2" height="1" fill="#85D2AD"/><rect x="12" y="18" width="1" height="1" fill="#1C1746"/><rect x="23" y="18" width="1" height="1" fill="#1C1746"/><rect x="24" y="18" width="2" height="1" fill="#85D2AD"/><rect x="26" y="18" width="1" height="1" fill="#1C1746"/><rect x="9" y="19" width="1" height="1" fill="#1C1746"/><rect x="10" y="19" width="2" height="1" fill="#85D2AD"/><rect x="12" y="19" width="1" height="1" fill="#1C1746"/><rect x="23" y="19" width="1" height="1" fill="#1C1746"/><rect x="24" y="19" width="2" height="1" fill="#85D2AD"/><rect x="26" y="19" width="1" height="1" fill="#1C1746"/><rect x="9" y="20" width="4" height="1" fill="#1C1746"/><rect x="23" y="20" width="4" height="1" fill="#1C1746"/></svg>