<svg width="37" height="36" viewBox="0 0 37 36" fill="none" xmlns="http://www.w3.org/2000/svg">
<g filter="url(#filter0_d_160_2920)">
<path d="M8.0498 2.09961C9.43903 2.09961 10.7616 2.60844 11.7998 3.50293C12.838 2.60844 14.1606 2.09961 15.5498 2.09961H17.7002C18.2522 2.09982 18.7 2.54764 18.7002 3.09961V5.30078C18.7 5.85276 18.2522 6.30057 17.7002 6.30078H15.5498C15.146 6.30078 14.7369 6.46806 14.4189 6.80176C14.0975 7.13953 13.9004 7.61864 13.9004 8.1377V14.7998H16.7002C17.2522 14.8 17.7 15.2478 17.7002 15.7998V18.001C17.7 18.553 17.2522 19.0008 16.7002 19.001H13.9004V21.2627C13.9004 21.7817 14.0975 22.2609 14.4189 22.5986C14.7369 22.9323 15.146 23.0996 15.5498 23.0996H17.7002C18.2522 23.0998 18.7 23.5476 18.7002 24.0996V26.3008C18.7 26.8528 18.2522 27.3006 17.7002 27.3008H15.5498C14.1604 27.3008 12.8381 26.7912 11.7998 25.8965C10.7615 26.7912 9.43925 27.3008 8.0498 27.3008H5.89941C5.34744 27.3006 4.89962 26.8528 4.89941 26.3008V24.0996C4.89962 23.5476 5.34744 23.0998 5.89941 23.0996H8.0498C8.45366 23.0996 8.86272 22.9323 9.18066 22.5986C9.50215 22.2609 9.69922 21.7817 9.69922 21.2627V19.001H6.89941C6.34744 19.0008 5.89962 18.553 5.89941 18.001V15.7998C5.89962 15.2478 6.34744 14.8 6.89941 14.7998H9.69922V8.1377C9.69922 7.61864 9.50215 7.13952 9.18066 6.80176C8.86272 6.46806 8.45366 6.30078 8.0498 6.30078H5.89941C5.34744 6.30057 4.89962 5.85275 4.89941 5.30078V3.09961C4.89962 2.54763 5.34744 2.09982 5.89941 2.09961H8.0498Z" fill="white" stroke="white" stroke-width="1.8"/>
<path d="M8.0498 3C9.3819 3 10.6471 3.55613 11.5703 4.52539C11.5946 4.55093 11.6186 4.57676 11.6422 4.60284C11.7263 4.69566 11.8733 4.69566 11.9574 4.60284C11.981 4.57676 12.005 4.55093 12.0293 4.52539C12.9526 3.55613 14.2177 3 15.5498 3H17.5998C17.7103 3 17.7998 3.08954 17.7998 3.2V5.20039C17.7998 5.31085 17.7103 5.40039 17.5998 5.40039H15.5498C14.8931 5.40039 14.2508 5.67354 13.7676 6.18066C13.2824 6.69005 13 7.39329 13 8.1377V15.5002C13 15.6107 13.0895 15.7002 13.2 15.7002H16.5998C16.7103 15.7002 16.7998 15.7897 16.7998 15.9002V17.9006C16.7998 18.011 16.7103 18.1006 16.5998 18.1006H13.2C13.0895 18.1006 13 18.1901 13 18.3006V21.2627C13 22.0071 13.2824 22.7103 13.7676 23.2197C14.2508 23.7269 14.8931 24 15.5498 24H17.5998C17.7103 24 17.7998 24.0895 17.7998 24.2V26.2004C17.7998 26.3108 17.7103 26.4004 17.5998 26.4004H15.5498C14.2177 26.4004 12.9526 25.8443 12.0293 24.875C12.0048 24.8493 11.9808 24.8233 11.9571 24.797C11.8732 24.7039 11.7264 24.7039 11.6426 24.797C11.6188 24.8233 11.5948 24.8493 11.5703 24.875C10.6471 25.8443 9.3819 26.4004 8.0498 26.4004H5.9998C5.88935 26.4004 5.7998 26.3108 5.7998 26.2004V24.2C5.7998 24.0895 5.88935 24 5.9998 24H8.0498C8.70651 24 9.34884 23.7269 9.83203 23.2197C10.3172 22.7103 10.5996 22.0071 10.5996 21.2627V18.3006C10.5996 18.1901 10.5101 18.1006 10.3996 18.1006H6.9998C6.88935 18.1006 6.7998 18.011 6.7998 17.9006V15.9002C6.7998 15.7897 6.88935 15.7002 6.9998 15.7002H10.3996C10.5101 15.7002 10.5996 15.6107 10.5996 15.5002V8.1377C10.5996 7.39329 10.3172 6.69005 9.83203 6.18066C9.34884 5.67354 8.70651 5.40039 8.0498 5.40039H5.9998C5.88935 5.40039 5.7998 5.31085 5.7998 5.20039V3.2C5.7998 3.08954 5.88935 3 5.9998 3H8.0498Z" fill="#00AD73"/>
</g>
<g filter="url(#filter1_d_160_2920)">
<path d="M24.9995 2.7002C25.8707 2.7002 26.6675 3.19248 27.0571 3.97168L27.9126 5.68359C28.0393 5.93709 28.1067 6.07144 28.1606 6.16992C28.2061 6.25287 28.212 6.25378 28.1948 6.23145C28.2158 6.25866 28.2408 6.2837 28.2681 6.30469C28.2457 6.28747 28.2466 6.29339 28.3296 6.33887C28.4281 6.39285 28.5624 6.46017 28.8159 6.58691L30.5278 7.44238C31.307 7.83198 31.7993 8.62882 31.7993 9.5C31.7993 10.3712 31.307 11.168 30.5278 11.5576L29.8843 11.8779C30.385 12.0867 30.8059 12.4692 31.0571 12.9717L31.2134 13.2861L31.5278 13.4424C32.307 13.832 32.7993 14.6288 32.7993 15.5C32.7993 16.3712 32.307 17.168 31.5278 17.5576L31.2134 17.7139L31.0571 18.0283C30.6675 18.8075 29.8707 19.2998 28.9995 19.2998C28.1283 19.2998 27.3315 18.8075 26.9419 18.0283L26.7856 17.7139L26.4712 17.5576C25.932 17.288 25.5299 16.8236 25.3335 16.2744C25.2238 16.2905 25.1124 16.2998 24.9995 16.2998C24.1283 16.2998 23.3315 15.8075 22.9419 15.0283L22.0864 13.3164C21.9597 13.0629 21.8924 12.9286 21.8384 12.8301C21.7929 12.7471 21.787 12.7462 21.8042 12.7686C21.7832 12.7413 21.7582 12.7163 21.731 12.6953C21.7533 12.7125 21.7524 12.7066 21.6694 12.6611C21.571 12.6071 21.4366 12.5398 21.1831 12.4131L19.4712 11.5576C18.692 11.168 18.1997 10.3712 18.1997 9.5C18.1997 8.62882 18.692 7.83198 19.4712 7.44238L21.1831 6.58691C21.4366 6.46017 21.571 6.39285 21.6694 6.33887C21.7524 6.29339 21.7533 6.28747 21.731 6.30469C21.7582 6.28371 21.7832 6.25866 21.8042 6.23145C21.787 6.25378 21.7929 6.25287 21.8384 6.16992C21.8924 6.07144 21.9597 5.93709 22.0864 5.68359L22.9419 3.97168C23.3315 3.19248 24.1283 2.7002 24.9995 2.7002ZM26.144 11.7246C26.132 11.7465 26.1204 11.7695 26.1079 11.793C26.1621 11.6911 26.2105 11.6052 26.2593 11.5283L26.144 11.7246ZM23.1353 8.12598L23.27 8.01562C23.2866 8.00103 23.3016 7.98472 23.3179 7.96973C23.2589 8.024 23.1988 8.077 23.1353 8.12598Z" fill="white"/>
<path d="M28.9995 13.5C29.1889 13.5 29.3621 13.607 29.4468 13.7764L29.7085 14.2998C29.8052 14.4932 29.8264 14.5301 29.8491 14.5596C29.8753 14.5936 29.9059 14.6242 29.9399 14.6504C29.9694 14.6731 30.0063 14.6943 30.1997 14.791L30.7231 15.0527C30.8925 15.1374 30.9995 15.3106 30.9995 15.5C30.9995 15.6894 30.8925 15.8626 30.7231 15.9473L30.1997 16.209C30.0063 16.3057 29.9694 16.3269 29.9399 16.3496C29.9059 16.3758 29.8753 16.4064 29.8491 16.4404C29.8264 16.4699 29.8052 16.5068 29.7085 16.7002L29.4468 17.2236C29.3621 17.393 29.1889 17.5 28.9995 17.5C28.8101 17.5 28.6369 17.393 28.5522 17.2236L28.2905 16.7002C28.1938 16.5068 28.1726 16.4699 28.1499 16.4404C28.1237 16.4064 28.0931 16.3758 28.0591 16.3496C28.0296 16.3269 27.9927 16.3057 27.7993 16.209L27.2759 15.9473C27.1065 15.8626 26.9995 15.6894 26.9995 15.5C26.9995 15.3106 27.1065 15.1374 27.2759 15.0527L27.7993 14.791C27.9927 14.6943 28.0296 14.6731 28.0591 14.6504C28.0931 14.6242 28.1237 14.5936 28.1499 14.5596C28.1726 14.5301 28.1938 14.4932 28.2905 14.2998L28.5522 13.7764L28.5884 13.7158C28.6809 13.582 28.8339 13.5 28.9995 13.5ZM24.9995 4.5C25.1889 4.5 25.3621 4.60698 25.4468 4.77637L26.3032 6.48828C26.5506 6.98309 26.6468 7.17119 26.77 7.33105C26.8852 7.48041 27.0191 7.6143 27.1685 7.72949C27.3283 7.85272 27.5164 7.94888 28.0112 8.19629L29.7231 9.05273C29.8925 9.13743 29.9995 9.31061 29.9995 9.5C29.9995 9.68939 29.8925 9.86257 29.7231 9.94727L28.0112 10.8037C27.5164 11.0511 27.3283 11.1473 27.1685 11.2705C27.0191 11.3857 26.8852 11.5196 26.77 11.6689C26.6468 11.8288 26.5506 12.0169 26.3032 12.5117L25.4468 14.2236C25.3621 14.393 25.1889 14.5 24.9995 14.5C24.8101 14.5 24.6369 14.393 24.5522 14.2236L23.6958 12.5117C23.4484 12.0169 23.3522 11.8288 23.229 11.6689C23.1138 11.5196 22.9799 11.3857 22.8306 11.2705C22.6707 11.1473 22.4826 11.0511 21.9878 10.8037L20.2759 9.94727C20.1065 9.86257 19.9995 9.68939 19.9995 9.5C19.9995 9.31061 20.1065 9.13743 20.2759 9.05273L21.9878 8.19629C22.4826 7.94888 22.6707 7.85272 22.8306 7.72949C22.9799 7.6143 23.1138 7.48041 23.229 7.33105C23.3522 7.17119 23.4484 6.98309 23.6958 6.48828L24.5522 4.77637L24.5884 4.71582C24.6809 4.58197 24.8339 4.5 24.9995 4.5Z" fill="#10B981"/>
</g>
<defs>
<filter id="filter0_d_160_2920" x="0" y="0.200195" width="23.5996" height="35" filterUnits="userSpaceOnUse" color-interpolation-filters="sRGB">
<feFlood flood-opacity="0" result="BackgroundImageFix"/>
<feColorMatrix in="SourceAlpha" type="matrix" values="0 0 0 0 0 0 0 0 0 0 0 0 0 0 0 0 0 0 127 0" result="hardAlpha"/>
<feOffset dy="3"/>
<feGaussianBlur stdDeviation="2"/>
<feComposite in2="hardAlpha" operator="out"/>
<feColorMatrix type="matrix" values="0 0 0 0 0.0823529 0 0 0 0 0.0705882 0 0 0 0 0.243137 0 0 0 0.25 0"/>
<feBlend mode="normal" in2="BackgroundImageFix" result="effect1_dropShadow_160_2920"/>
<feBlend mode="normal" in="SourceGraphic" in2="effect1_dropShadow_160_2920" result="shape"/>
</filter>
<filter id="filter1_d_160_2920" x="14.1997" y="1.7002" width="22.5996" height="24.5996" filterUnits="userSpaceOnUse" color-interpolation-filters="sRGB">
<feFlood flood-opacity="0" result="BackgroundImageFix"/>
<feColorMatrix in="SourceAlpha" type="matrix" values="0 0 0 0 0 0 0 0 0 0 0 0 0 0 0 0 0 0 127 0" result="hardAlpha"/>
<feOffset dy="3"/>
<feGaussianBlur stdDeviation="2"/>
<feComposite in2="hardAlpha" operator="out"/>
<feColorMatrix type="matrix" values="0 0 0 0 0.0823529 0 0 0 0 0.0705882 0 0 0 0 0.243137 0 0 0 0.25 0"/>
<feBlend mode="normal" in2="BackgroundImageFix" result="effect1_dropShadow_160_2920"/>
<feBlend mode="normal" in="SourceGraphic" in2="effect1_dropShadow_160_2920" result="shape"/>
</filter>
</defs>
</svg>
