<svg width="93" height="50" viewBox="0 0 93 50" fill="none" xmlns="http://www.w3.org/2000/svg">
<path d="M24.9319 26.0004C9.43188 44.5004 -4.06773 29.0004 4.43202 20.5004C9.93214 15.5004 16.432 20.5004 12.932 25.0004" fill="#85D2AD"/>
<path d="M24.9319 26.0004C9.43188 44.5004 -4.06773 29.0004 4.43202 20.5004C9.93214 15.5004 16.432 20.5004 12.932 25.0004" stroke="#1C1746" stroke-width="3.6" stroke-linecap="round" stroke-linejoin="round"/>
<path d="M46.432 40.5004C61.896 40.5004 74.432 31.9938 74.432 21.5004C74.432 11.007 61.896 2.5004 46.432 2.5004C30.968 2.5004 18.432 11.007 18.432 21.5004C18.432 31.9938 30.968 40.5004 46.432 40.5004Z" fill="#85D2AD" stroke="#1C1746" stroke-width="4" stroke-linecap="round" stroke-linejoin="round"/>
<path d="M70.432 13.5004C82.432 12.1671 89.0987 15.5004 90.432 23.5004C89.0987 30.1671 83.0987 32.8337 72.432 31.5004L70.432 13.5004Z" fill="#85D2AD" stroke="#1C1746" stroke-width="3.6" stroke-linecap="round" stroke-linejoin="round"/>
<path opacity="0.7" d="M28.432 5.5004L34.432 13.5004M40.432 1.5004L43.432 10.5004M54.432 2.5004L53.432 11.5004" stroke="#1C1746" stroke-width="3" stroke-linecap="round" stroke-linejoin="round"/>
<path d="M72.432 25.0004C77.6787 25.0004 81.932 20.7471 81.932 15.5004C81.932 10.2537 77.6787 6.0004 72.432 6.0004C67.1853 6.0004 62.932 10.2537 62.932 15.5004C62.932 20.7471 67.1853 25.0004 72.432 25.0004Z" fill="white" stroke="#1C1746" stroke-width="3.2" stroke-linecap="round" stroke-linejoin="round"/>
<path d="M74.4321 20.9004C76.3099 20.9004 77.8321 19.3782 77.8321 17.5004C77.8321 15.6226 76.3099 14.1004 74.4321 14.1004C72.5543 14.1004 71.0321 15.6226 71.0321 17.5004C71.0321 19.3782 72.5543 20.9004 74.4321 20.9004Z" fill="#1C1746"/>
<path d="M80.432 27.5004C84.432 28.8337 87.7653 28.8337 90.432 27.5004" stroke="#1C1746" stroke-width="3" stroke-linecap="round" stroke-linejoin="round"/>
<path d="M34.432 39.5004V47.5004M58.432 39.5004V47.5004" stroke="#1C1746" stroke-width="3.6" stroke-linecap="round" stroke-linejoin="round"/>
<path opacity="0.5" d="M62.432 28.5004C64.0889 28.5004 65.432 27.1573 65.432 25.5004C65.432 23.8435 64.0889 22.5004 62.432 22.5004C60.7752 22.5004 59.432 23.8435 59.432 25.5004C59.432 27.1573 60.7752 28.5004 62.432 28.5004Z" fill="#EC5A44"/>
</svg>
