<svg width="105" height="54" viewBox="0 0 105 54" fill="none" xmlns="http://www.w3.org/2000/svg">
<path d="M22.137 41.8004C13.3004 41.8004 6.13696 35.5324 6.13696 27.8004C6.13696 20.0684 13.3004 13.8004 22.137 13.8004C30.9735 13.8004 38.137 20.0684 38.137 27.8004C38.137 35.5324 30.9735 41.8004 22.137 41.8004Z" fill="#F9BF9E" stroke="#1C1746" stroke-width="4" stroke-linecap="round" stroke-linejoin="round"/>
<path d="M10.137 17.8004C3.4703 12.4671 0.80363 7.13376 2.13696 1.80043" stroke="#1C1746" stroke-width="3.6" stroke-linecap="round" stroke-linejoin="round"/>
<path d="M28.137 39.8004V51.8004M16.137 39.8004V51.8004" stroke="#1C1746" stroke-width="3.8" stroke-linecap="round" stroke-linejoin="round"/>
<path d="M20.137 13.8004H84.137V41.8004H20.137V13.8004Z" fill="#F9BF9E"/>
<path d="M84.137 13.8004H20.137" stroke="#1C1746" stroke-width="4" stroke-linecap="round" stroke-linejoin="round"/>
<path d="M84.137 41.8004H20.137" stroke="#1C1746" stroke-width="4" stroke-linecap="round" stroke-linejoin="round"/>
<path d="M84.137 41.8004C74.1958 41.8004 66.137 34.637 66.137 25.8004C66.137 16.9639 74.1958 9.80043 84.137 9.80043C94.0781 9.80043 102.137 16.9639 102.137 25.8004C102.137 34.637 94.0781 41.8004 84.137 41.8004Z" fill="#F9BF9E" stroke="#1C1746" stroke-width="4" stroke-linecap="round" stroke-linejoin="round"/>
<path d="M96.1369 7.80043C101.47 17.1338 100.804 23.1338 94.1369 25.8004ZM76.1369 5.80043C70.8036 13.8004 70.8036 19.8004 76.1369 23.8004Z" fill="#EE8654"/>
<path d="M96.1369 7.80043C101.47 17.1338 100.804 23.1338 94.1369 25.8004M76.1369 5.80043C70.8036 13.8004 70.8036 19.8004 76.1369 23.8004" stroke="#1C1746" stroke-width="3.2" stroke-linecap="round" stroke-linejoin="round"/>
<path d="M94.637 27.9604C91.5994 27.9604 89.137 25.2025 89.137 21.8004C89.137 18.3984 91.5994 15.6404 94.637 15.6404C97.6745 15.6404 100.137 18.3984 100.137 21.8004C100.137 25.2025 97.6745 27.9604 94.637 27.9604Z" fill="white" stroke="#1C1746" stroke-width="3.2" stroke-linecap="round" stroke-linejoin="round"/>
<path d="M77.637 27.9604C74.5994 27.9604 72.137 25.2025 72.137 21.8004C72.137 18.3984 74.5994 15.6404 77.637 15.6404C80.6745 15.6404 83.137 18.3984 83.137 21.8004C83.137 25.2025 80.6745 27.9604 77.637 27.9604Z" fill="white" stroke="#1C1746" stroke-width="3.2" stroke-linecap="round" stroke-linejoin="round"/>
<path d="M95.637 25.6504C94.3612 25.6504 93.327 24.6162 93.327 23.3404C93.327 22.0647 94.3612 21.0304 95.637 21.0304C96.9128 21.0304 97.947 22.0647 97.947 23.3404C97.947 24.6162 96.9128 25.6504 95.637 25.6504Z" fill="#1C1746"/>
<path d="M78.637 25.6504C77.3612 25.6504 76.327 24.6162 76.327 23.3404C76.327 22.0647 77.3612 21.0304 78.637 21.0304C79.9128 21.0304 80.947 22.0647 80.947 23.3404C80.947 24.6162 79.9128 25.6504 78.637 25.6504Z" fill="#1C1746"/>
<path d="M95.7369 21.1404C95.1902 21.1404 94.7469 20.6972 94.7469 20.1504C94.7469 19.6037 95.1902 19.1604 95.7369 19.1604C96.2837 19.1604 96.7269 19.6037 96.7269 20.1504C96.7269 20.6972 96.2837 21.1404 95.7369 21.1404Z" fill="white"/>
<path d="M78.7369 21.1404C78.1902 21.1404 77.7469 20.6972 77.7469 20.1504C77.7469 19.6037 78.1902 19.1604 78.7369 19.1604C79.2837 19.1604 79.7269 19.6037 79.7269 20.1504C79.7269 20.6972 79.2837 21.1404 78.7369 21.1404Z" fill="white"/>
<path d="M100.137 35.8004C97.9278 35.8004 96.137 34.0096 96.137 31.8004C96.137 29.5913 97.9278 27.8004 100.137 27.8004C102.346 27.8004 104.137 29.5913 104.137 31.8004C104.137 34.0096 102.346 35.8004 100.137 35.8004Z" fill="#1C1746"/>
<path d="M96.137 35.8004C92.137 41.1338 88.137 41.1338 84.137 35.8004" stroke="#1C1746" stroke-width="3.2" stroke-linecap="round" stroke-linejoin="round"/>
<path d="M90.137 41.8004V51.8004M78.137 41.8004V51.8004" stroke="#1C1746" stroke-width="3.8" stroke-linecap="round" stroke-linejoin="round"/>
</svg>
