<svg width="40" height="50" viewBox="0 0 40 50" fill="none" xmlns="http://www.w3.org/2000/svg">
<path d="M20 37.6002C10.0589 37.6002 2 30.4367 2 21.6002C2 12.7636 10.0589 5.60017 20 5.60017C29.9411 5.60017 38 12.7636 38 21.6002C38 30.4367 29.9411 37.6002 20 37.6002Z" fill="#F9BF9E" stroke="#1C1746" stroke-width="4" stroke-linecap="round" stroke-linejoin="round"/>
<path d="M32 3.60017C37.3333 12.9335 36.6667 18.9335 30 21.6002ZM12 1.60017C6.66665 9.60017 6.66665 15.6002 12 19.6002Z" fill="#EE8654"/>
<path d="M32 3.60017C37.3333 12.9335 36.6667 18.9335 30 21.6002M12 1.60017C6.66665 9.60017 6.66665 15.6002 12 19.6002" stroke="#1C1746" stroke-width="3.2" stroke-linecap="round" stroke-linejoin="round"/>
<path d="M30.5 23.7602C27.4624 23.7602 25 21.0022 25 17.6002C25 14.1981 27.4624 11.4402 30.5 11.4402C33.5376 11.4402 36 14.1981 36 17.6002C36 21.0022 33.5376 23.7602 30.5 23.7602Z" fill="white" stroke="#1C1746" stroke-width="3.2" stroke-linecap="round" stroke-linejoin="round"/>
<path d="M13.5 23.7602C10.4624 23.7602 8 21.0022 8 17.6002C8 14.1981 10.4624 11.4402 13.5 11.4402C16.5376 11.4402 19 14.1981 19 17.6002C19 21.0022 16.5376 23.7602 13.5 23.7602Z" fill="white" stroke="#1C1746" stroke-width="3.2" stroke-linecap="round" stroke-linejoin="round"/>
<path d="M31.5001 21.4502C30.2243 21.4502 29.1901 20.4159 29.1901 19.1402C29.1901 17.8644 30.2243 16.8302 31.5001 16.8302C32.7758 16.8302 33.8101 17.8644 33.8101 19.1402C33.8101 20.4159 32.7758 21.4502 31.5001 21.4502Z" fill="#1C1746"/>
<path d="M14.5001 21.4502C13.2243 21.4502 12.1901 20.4159 12.1901 19.1402C12.1901 17.8644 13.2243 16.8302 14.5001 16.8302C15.7758 16.8302 16.8101 17.8644 16.8101 19.1402C16.8101 20.4159 15.7758 21.4502 14.5001 21.4502Z" fill="#1C1746"/>
<path d="M31.6 16.9402C31.0532 16.9402 30.61 16.4969 30.61 15.9502C30.61 15.4034 31.0532 14.9602 31.6 14.9602C32.1467 14.9602 32.59 15.4034 32.59 15.9502C32.59 16.4969 32.1467 16.9402 31.6 16.9402Z" fill="white"/>
<path d="M14.6 16.9402C14.0532 16.9402 13.61 16.4969 13.61 15.9502C13.61 15.4034 14.0532 14.9602 14.6 14.9602C15.1467 14.9602 15.59 15.4034 15.59 15.9502C15.59 16.4969 15.1467 16.9402 14.6 16.9402Z" fill="white"/>
<path d="M36 31.6002C33.7909 31.6002 32 29.8093 32 27.6002C32 25.391 33.7909 23.6002 36 23.6002C38.2091 23.6002 40 25.391 40 27.6002C40 29.8093 38.2091 31.6002 36 31.6002Z" fill="#1C1746"/>
<path d="M32 31.6002C28 36.9335 24 36.9335 20 31.6002" stroke="#1C1746" stroke-width="3.2" stroke-linecap="round" stroke-linejoin="round"/>
<path d="M26 37.6002V47.6002M14 37.6002V47.6002" stroke="#1C1746" stroke-width="3.8" stroke-linecap="round" stroke-linejoin="round"/>
</svg>
