<svg width="140" height="120" viewBox="0 0 140 120" fill="none" xmlns="http://www.w3.org/2000/svg">
<path d="M79 70.0048H93" stroke="#1C1746" stroke-width="3" stroke-linecap="round" stroke-linejoin="round"/>
<path d="M99 78.0048C106.732 78.0048 113 71.7368 113 64.0048C113 56.2728 106.732 50.0048 99 50.0048C91.268 50.0048 85 56.2728 85 64.0048C85 71.7368 91.268 78.0048 99 78.0048Z" fill="#F5C659" stroke="#1C1746" stroke-width="4" stroke-linecap="round" stroke-linejoin="round"/>
<path d="M92.5 65.1568C95.0405 65.1568 97.1 62.8502 97.1 60.0048C97.1 57.1594 95.0405 54.8528 92.5 54.8528C89.9595 54.8528 87.9 57.1594 87.9 60.0048C87.9 62.8502 89.9595 65.1568 92.5 65.1568Z" fill="white" stroke="#1C1746" stroke-width="2.6" stroke-linecap="round" stroke-linejoin="round"/>
<path d="M105.5 65.1568C108.041 65.1568 110.1 62.8502 110.1 60.0048C110.1 57.1594 108.041 54.8528 105.5 54.8528C102.96 54.8528 100.9 57.1594 100.9 60.0048C100.9 62.8502 102.96 65.1568 105.5 65.1568Z" fill="white" stroke="#1C1746" stroke-width="2.6" stroke-linecap="round" stroke-linejoin="round"/>
<path d="M94 63.2248C95.067 63.2248 95.932 62.3598 95.932 61.2928C95.932 60.2258 95.067 59.3608 94 59.3608C92.933 59.3608 92.068 60.2258 92.068 61.2928C92.068 62.3598 92.933 63.2248 94 63.2248Z" fill="#1C1746"/>
<path d="M107 63.2248C108.067 63.2248 108.932 62.3598 108.932 61.2928C108.932 60.2258 108.067 59.3608 107 59.3608C105.933 59.3608 105.068 60.2258 105.068 61.2928C105.068 62.3598 105.933 63.2248 107 63.2248Z" fill="#1C1746"/>
<path d="M92.828 60.6608C93.2853 60.6608 93.656 60.2901 93.656 59.8328C93.656 59.3755 93.2853 59.0048 92.828 59.0048C92.3707 59.0048 92 59.3755 92 59.8328C92 60.2901 92.3707 60.6608 92.828 60.6608Z" fill="white"/>
<path d="M105.828 60.6608C106.285 60.6608 106.656 60.2901 106.656 59.8328C106.656 59.3755 106.285 59.0048 105.828 59.0048C105.371 59.0048 105 59.3755 105 59.8328C105 60.2901 105.371 60.6608 105.828 60.6608Z" fill="white"/>
<path d="M94 70.0048C97.3333 75.3382 100.667 75.3382 104 70.0048" stroke="#1C1746" stroke-width="2.6" stroke-linecap="round" stroke-linejoin="round"/>
<path d="M104.5 24.0048C107 22.5048 109.286 22.0754 112 22.0048C114.023 21.9522 116.766 22.3315 118.568 23.0983C120.371 23.865 121.911 24.9991 123.046 26.3951C124.182 27.7911 124.875 29.4037 125.061 31.0828C125.248 32.762 124.922 34.4532 124.113 35.9991C123.305 37.5451 122.041 38.8956 120.438 39.9251C118.835 40.9546 116.946 41.6296 114.946 41.8873C112.947 42.1451 110.901 41.9772 109 41.3993L105 47.3993V40.3993C105 40.3993 99.5 38.0048 99.5 32.5048" fill="#FFFDF8"/>
<path d="M104.5 24.0048C107 22.5048 109.286 22.0754 112 22.0048C114.023 21.9522 116.766 22.3315 118.568 23.0983C120.371 23.865 121.911 24.9991 123.046 26.3951C124.182 27.7911 124.875 29.4037 125.061 31.0828C125.248 32.762 124.922 34.4532 124.113 35.9991C123.305 37.5451 122.041 38.8956 120.438 39.9251C118.835 40.9546 116.946 41.6296 114.946 41.8873C112.947 42.1451 110.901 41.9772 109 41.3993L105 47.3993V40.3993C105 40.3993 99.5 38.0048 99.5 32.5048" stroke="#1C1746" stroke-width="3" stroke-linecap="round" stroke-linejoin="round"/>
<path d="M109.013 33.2459V36.3993H107.5V29.1266H108.97V31.9071H109.034C109.157 31.5851 109.356 31.333 109.631 31.1507C109.905 30.9661 110.25 30.8737 110.664 30.8737C111.043 30.8737 111.373 30.9566 111.655 31.1223C111.939 31.2857 112.159 31.5212 112.316 31.829C112.474 32.1344 112.552 32.5001 112.55 32.9263V36.3993H111.037V33.1962C111.039 32.86 110.954 32.5984 110.781 32.4114C110.611 32.2243 110.372 32.1308 110.064 32.1308C109.858 32.1308 109.676 32.1746 109.517 32.2622C109.361 32.3498 109.238 32.4777 109.148 32.6457C109.06 32.8115 109.015 33.0115 109.013 33.2459ZM113.74 36.3993V30.9447H115.253V36.3993H113.74ZM114.5 30.2416C114.275 30.2416 114.083 30.167 113.922 30.0179C113.763 29.8664 113.684 29.6853 113.684 29.4746C113.684 29.2662 113.763 29.0875 113.922 28.9384C114.083 28.7868 114.275 28.7111 114.5 28.7111C114.725 28.7111 114.917 28.7868 115.076 28.9384C115.237 29.0875 115.317 29.2662 115.317 29.4746C115.317 29.6853 115.237 29.8664 115.076 30.0179C114.917 30.167 114.725 30.2416 114.5 30.2416ZM118.273 29.1266L118.134 34.2189H116.834L116.692 29.1266H118.273ZM117.484 36.4916C117.25 36.4916 117.049 36.4088 116.881 36.243C116.712 36.075 116.63 35.8737 116.632 35.6393C116.63 35.4073 116.712 35.2085 116.881 35.0428C117.049 34.877 117.25 34.7942 117.484 34.7942C117.709 34.7942 117.907 34.877 118.077 35.0428C118.248 35.2085 118.334 35.4073 118.336 35.6393C118.334 35.7956 118.293 35.9388 118.212 36.069C118.134 36.1969 118.031 36.2999 117.903 36.378C117.775 36.4537 117.636 36.4916 117.484 36.4916Z" fill="#1C1746"/>
<path d="M21 84.0048C23.5447 76.4745 28.3868 69.9317 34.8448 65.2973C41.3027 60.6629 49.0513 58.1703 57 58.1703C64.9487 58.1703 72.6973 60.6629 79.1553 65.2973C85.6132 69.9317 90.4553 76.4745 93 84.0048H21Z" fill="#85D2AD" stroke="#1C1746" stroke-width="4" stroke-linecap="round" stroke-linejoin="round"/>
<path opacity="0.55" d="M38 70.0048C38 72.1266 38.8429 74.1614 40.3431 75.6617C41.8434 77.162 43.8783 78.0048 46 78.0048C48.1217 78.0048 50.1566 77.162 51.6569 75.6617C53.1571 74.1614 54 72.1266 54 70.0048M56 58.0048C55.606 58.9241 55.397 59.9119 55.3848 60.912C55.3726 61.912 55.5575 62.9047 55.9289 63.8333C56.3004 64.7618 56.8511 65.6082 57.5496 66.3239C58.2481 67.0397 59.0807 67.6109 60 68.0048C60.9193 68.3988 61.9071 68.6078 62.9071 68.62C63.9072 68.6322 64.8998 68.4473 65.8284 68.0759C66.757 67.7045 67.6033 67.1538 68.3191 66.4552C69.0349 65.7567 69.606 64.9241 70 64.0048" stroke="#1C1746" stroke-width="2.6" stroke-linecap="round" stroke-linejoin="round"/>
<path d="M94 82.0048H20C17.2386 82.0048 15 84.2434 15 87.0048C15 89.7662 17.2386 92.0048 20 92.0048H94C96.7614 92.0048 99 89.7662 99 87.0048C99 84.2434 96.7614 82.0048 94 82.0048Z" fill="#52BB89" stroke="#1C1746" stroke-width="3.6" stroke-linecap="round" stroke-linejoin="round"/>
<path d="M32 93.0048V98.0048M77 93.0048V98.0048" stroke="#1C1746" stroke-width="4" stroke-linecap="round" stroke-linejoin="round"/>
<path d="M38 93.0048V98.0048M83 93.0048V98.0048" stroke="#1C1746" stroke-width="4" stroke-linecap="round" stroke-linejoin="round"/>
</svg>
