<svg width="40" height="40" viewBox="0 0 40 40" fill="none" xmlns="http://www.w3.org/2000/svg">
<path d="M21 28H20C19.2044 28 18.4413 27.6839 17.8787 27.1213C17.3161 26.5587 17 25.7956 17 25V15C17 14.2044 17.3161 13.4413 17.8787 12.8787C18.4413 12.3161 19.2044 12 20 12H21" stroke="#3A356E" stroke-width="2" stroke-linecap="round" stroke-linejoin="round"/>
<path d="M13 12H14C14.7956 12 15.5587 12.3161 16.1213 12.8787C16.6839 13.4413 17 14.2044 17 15V25C17 25.7956 16.6839 26.5587 16.1213 27.1213C15.5587 27.6839 14.7956 28 14 28H13" stroke="#3A356E" stroke-width="2" stroke-linecap="round" stroke-linejoin="round"/>
<path d="M21.1001 15.9004H27.9001C28.4507 15.9203 28.9734 16.1479 29.363 16.5375C29.7526 16.9271 29.9802 17.4498 30.0001 18.0004V22.0004C29.9975 22.5565 29.7754 23.0892 29.3821 23.4824C28.9889 23.8757 28.4562 24.0978 27.9001 24.1004H21.1001" stroke="#3A356E" stroke-width="2" stroke-linecap="round" stroke-linejoin="round"/>
<path d="M12.8 24.1004H12.1C11.5494 24.0805 11.0267 23.8529 10.6371 23.4633C10.2475 23.0737 10.0199 22.551 10 22.0004V18.0004C10.0199 17.4498 10.2475 16.9271 10.6371 16.5375C11.0267 16.1479 11.5494 15.9203 12.1 15.9004H12.8" stroke="#3A356E" stroke-width="2" stroke-linecap="round" stroke-linejoin="round"/>
</svg>
