<svg xmlns="http://www.w3.org/2000/svg" viewBox="0 0 22 11" shape-rendering="crispEdges"><style>g.f{opacity:0;animation:c 3.6s infinite}@keyframes c{0%{opacity:1}16.67%{opacity:1}16.68%{opacity:0}100%{opacity:0}}#f0{animation-delay:-3.600s}#f1{animation-delay:-3.000s}#f2{animation-delay:-2.400s}#f3{animation-delay:-1.800s}#f4{animation-delay:-1.200s}#f5{animation-delay:-0.600s}@media (prefers-reduced-motion: reduce){g.f{animation:none}#f0{opacity:1}}</style><g class="f" id="f0"><rect x="7" y="3" width="2" height="1" fill="#FFFDF9"/><rect x="9" y="3" width="1" height="1" fill="#FFFFFF"/><rect x="10" y="3" width="1" height="1" fill="#FFFDF9"/><rect x="11" y="3" width="1" height="1" fill="#F2ECF9"/><rect x="13" y="3" width="1" height="1" fill="#FFFDF9"/><rect x="15" y="3" width="1" height="1" fill="#FFFDF9"/><rect x="6" y="4" width="2" height="1" fill="#FFFDF9"/><rect x="8" y="4" width="1" height="1" fill="#F2ECF9"/><rect x="9" y="4" width="1" height="1" fill="#FFFFFF"/><rect x="10" y="4" width="1" height="1" fill="#F2ECF9"/><rect x="11" y="4" width="5" height="1" fill="#FFFDF9"/><rect x="16" y="4" width="1" height="1" fill="#F2ECF9"/><rect x="5" y="5" width="2" height="1" fill="#FFFDF9"/><rect x="7" y="5" width="2" height="1" fill="#FFFFFF"/><rect x="9" y="5" width="1" height="1" fill="#FFFDF9"/><rect x="10" y="5" width="1" height="1" fill="#FFFFFF"/><rect x="11" y="5" width="1" height="1" fill="#F2ECF9"/><rect x="12" y="5" width="2" height="1" fill="#FFFDF9"/><rect x="14" y="5" width="1" height="1" fill="#FFFFFF"/><rect x="15" y="5" width="3" height="1" fill="#FFFDF9"/><rect x="6" y="6" width="3" height="1" fill="#FFFDF9"/><rect x="9" y="6" width="1" height="1" fill="#FFFFFF"/><rect x="10" y="6" width="2" height="1" fill="#FFFDF9"/><rect x="12" y="6" width="2" height="1" fill="#F2ECF9"/><rect x="14" y="6" width="3" height="1" fill="#FFFDF9"/><rect x="17" y="6" width="1" height="1" fill="#F2ECF9"/><rect x="18" y="6" width="1" height="1" fill="#FFFDF9"/><rect x="5" y="7" width="1" height="1" fill="#F2ECF9"/><rect x="6" y="7" width="1" height="1" fill="#FFFFFF"/><rect x="7" y="7" width="2" height="1" fill="#FFFDF9"/><rect x="9" y="7" width="1" height="1" fill="#FFFFFF"/><rect x="10" y="7" width="2" height="1" fill="#FFFDF9"/><rect x="12" y="7" width="1" height="1" fill="#F2ECF9"/><rect x="13" y="7" width="3" height="1" fill="#FFFDF9"/><rect x="17" y="7" width="1" height="1" fill="#FFFDF9"/><rect x="6" y="8" width="3" height="1" fill="#EAF0FC"/><rect x="9" y="8" width="5" height="1" fill="#DCE6FB"/><rect x="14" y="8" width="1" height="1" fill="#EAF0FC"/><rect x="7" y="9" width="1" height="1" fill="#DCE6FB"/><rect x="8" y="9" width="1" height="1" fill="#EAF0FC"/><rect x="9" y="9" width="3" height="1" fill="#DCE6FB"/><rect x="12" y="9" width="1" height="1" fill="#EAF0FC"/><rect x="13" y="9" width="1" height="1" fill="#DCE6FB"/><rect x="15" y="9" width="1" height="1" fill="#EAF0FC"/></g><g class="f" id="f1"><rect x="8" y="3" width="1" height="1" fill="#FFFDF9"/><rect x="10" y="3" width="1" height="1" fill="#FFFDF9"/><rect x="12" y="3" width="1" height="1" fill="#FFFFFF"/><rect x="14" y="3" width="1" height="1" fill="#FFFDF9"/><rect x="5" y="4" width="1" height="1" fill="#FFFFFF"/><rect x="6" y="4" width="2" height="1" fill="#FFFDF9"/><rect x="8" y="4" width="1" height="1" fill="#F2ECF9"/><rect x="9" y="4" width="1" height="1" fill="#FFFDF9"/><rect x="10" y="4" width="1" height="1" fill="#FFFFFF"/><rect x="11" y="4" width="1" height="1" fill="#FFFDF9"/><rect x="12" y="4" width="1" height="1" fill="#FFFFFF"/><rect x="13" y="4" width="2" height="1" fill="#FFFDF9"/><rect x="15" y="4" width="1" height="1" fill="#F2ECF9"/><rect x="17" y="4" width="1" height="1" fill="#FFFDF9"/><rect x="6" y="5" width="1" height="1" fill="#FFFFFF"/><rect x="7" y="5" width="1" height="1" fill="#FFFDF9"/><rect x="8" y="5" width="1" height="1" fill="#FFFFFF"/><rect x="9" y="5" width="2" height="1" fill="#FFFDF9"/><rect x="11" y="5" width="1" height="1" fill="#FFFFFF"/><rect x="12" y="5" width="3" height="1" fill="#FFFDF9"/><rect x="15" y="5" width="2" height="1" fill="#F2ECF9"/><rect x="17" y="5" width="2" height="1" fill="#FFFFFF"/><rect x="5" y="6" width="1" height="1" fill="#F2ECF9"/><rect x="6" y="6" width="2" height="1" fill="#FFFDF9"/><rect x="8" y="6" width="1" height="1" fill="#FFFFFF"/><rect x="9" y="6" width="1" height="1" fill="#FFFDF9"/><rect x="10" y="6" width="1" height="1" fill="#F2ECF9"/><rect x="11" y="6" width="2" height="1" fill="#FFFDF9"/><rect x="13" y="6" width="1" height="1" fill="#FFFFFF"/><rect x="14" y="6" width="4" height="1" fill="#FFFDF9"/><rect x="18" y="6" width="1" height="1" fill="#FFFFFF"/><rect x="19" y="6" width="1" height="1" fill="#FFFDF9"/><rect x="5" y="7" width="2" height="1" fill="#F2ECF9"/><rect x="7" y="7" width="1" height="1" fill="#FFFDF9"/><rect x="8" y="7" width="1" height="1" fill="#FFFFFF"/><rect x="9" y="7" width="1" height="1" fill="#FFFDF9"/><rect x="10" y="7" width="1" height="1" fill="#FFFFFF"/><rect x="11" y="7" width="1" height="1" fill="#F2ECF9"/><rect x="12" y="7" width="1" height="1" fill="#FFFDF9"/><rect x="13" y="7" width="1" height="1" fill="#FFFFFF"/><rect x="14" y="7" width="3" height="1" fill="#FFFDF9"/><rect x="5" y="8" width="2" height="1" fill="#EAF0FC"/><rect x="7" y="8" width="3" height="1" fill="#DCE6FB"/><rect x="10" y="8" width="1" height="1" fill="#EAF0FC"/><rect x="11" y="8" width="1" height="1" fill="#DCE6FB"/><rect x="12" y="8" width="1" height="1" fill="#EAF0FC"/><rect x="13" y="8" width="3" height="1" fill="#DCE6FB"/><rect x="8" y="9" width="2" height="1" fill="#EAF0FC"/><rect x="10" y="9" width="1" height="1" fill="#DCE6FB"/><rect x="11" y="9" width="2" height="1" fill="#EAF0FC"/><rect x="13" y="9" width="2" height="1" fill="#DCE6FB"/></g><g class="f" id="f2"><rect x="7" y="3" width="1" height="1" fill="#F2ECF9"/><rect x="9" y="3" width="1" height="1" fill="#FFFDF9"/><rect x="13" y="3" width="1" height="1" fill="#FFFDF9"/><rect x="6" y="4" width="4" height="1" fill="#FFFDF9"/><rect x="10" y="4" width="1" height="1" fill="#F2ECF9"/><rect x="11" y="4" width="2" height="1" fill="#FFFDF9"/><rect x="13" y="4" width="2" height="1" fill="#F2ECF9"/><rect x="15" y="4" width="1" height="1" fill="#FFFDF9"/><rect x="16" y="4" width="1" height="1" fill="#FFFFFF"/><rect x="18" y="4" width="1" height="1" fill="#FFFDF9"/><rect x="5" y="5" width="2" height="1" fill="#FFFDF9"/><rect x="7" y="5" width="1" height="1" fill="#F2ECF9"/><rect x="8" y="5" width="2" height="1" fill="#FFFDF9"/><rect x="10" y="5" width="1" height="1" fill="#F2ECF9"/><rect x="11" y="5" width="1" height="1" fill="#FFFDF9"/><rect x="12" y="5" width="1" height="1" fill="#F2ECF9"/><rect x="13" y="5" width="2" height="1" fill="#FFFDF9"/><rect x="15" y="5" width="1" height="1" fill="#F2ECF9"/><rect x="16" y="5" width="2" height="1" fill="#FFFDF9"/><rect x="18" y="5" width="1" height="1" fill="#F2ECF9"/><rect x="19" y="5" width="1" height="1" fill="#FFFDF9"/><rect x="5" y="6" width="1" height="1" fill="#FFFFFF"/><rect x="6" y="6" width="5" height="1" fill="#FFFDF9"/><rect x="11" y="6" width="2" height="1" fill="#F2ECF9"/><rect x="13" y="6" width="1" height="1" fill="#FFFDF9"/><rect x="14" y="6" width="1" height="1" fill="#FFFFFF"/><rect x="15" y="6" width="2" height="1" fill="#FFFDF9"/><rect x="17" y="6" width="1" height="1" fill="#FFFFFF"/><rect x="18" y="6" width="1" height="1" fill="#FFFDF9"/><rect x="5" y="7" width="2" height="1" fill="#FFFDF9"/><rect x="7" y="7" width="1" height="1" fill="#F2ECF9"/><rect x="8" y="7" width="10" height="1" fill="#FFFDF9"/><rect x="4" y="8" width="1" height="1" fill="#DCE6FB"/><rect x="6" y="8" width="1" height="1" fill="#DCE6FB"/><rect x="8" y="8" width="1" height="1" fill="#EAF0FC"/><rect x="9" y="8" width="5" height="1" fill="#DCE6FB"/><rect x="14" y="8" width="1" height="1" fill="#EAF0FC"/><rect x="15" y="8" width="2" height="1" fill="#DCE6FB"/><rect x="7" y="9" width="1" height="1" fill="#EAF0FC"/><rect x="9" y="9" width="1" height="1" fill="#DCE6FB"/><rect x="10" y="9" width="1" height="1" fill="#EAF0FC"/><rect x="11" y="9" width="5" height="1" fill="#DCE6FB"/><rect x="10" y="10" width="1" height="1" fill="#EAF0FC"/></g><g class="f" id="f3"><rect x="8" y="3" width="1" height="1" fill="#FFFFFF"/><rect x="10" y="3" width="1" height="1" fill="#FFFFFF"/><rect x="12" y="3" width="1" height="1" fill="#F2ECF9"/><rect x="13" y="3" width="2" height="1" fill="#FFFDF9"/><rect x="16" y="3" width="1" height="1" fill="#FFFDF9"/><rect x="5" y="4" width="5" height="1" fill="#FFFDF9"/><rect x="10" y="4" width="1" height="1" fill="#F2ECF9"/><rect x="11" y="4" width="7" height="1" fill="#FFFDF9"/><rect x="4" y="5" width="1" height="1" fill="#FFFDF9"/><rect x="5" y="5" width="1" height="1" fill="#FFFFFF"/><rect x="6" y="5" width="9" height="1" fill="#FFFDF9"/><rect x="15" y="5" width="1" height="1" fill="#F2ECF9"/><rect x="16" y="5" width="1" height="1" fill="#FFFFFF"/><rect x="17" y="5" width="2" height="1" fill="#FFFDF9"/><rect x="5" y="6" width="1" height="1" fill="#FFFFFF"/><rect x="6" y="6" width="1" height="1" fill="#FFFDF9"/><rect x="7" y="6" width="1" height="1" fill="#F2ECF9"/><rect x="8" y="6" width="1" height="1" fill="#FFFFFF"/><rect x="9" y="6" width="2" height="1" fill="#F2ECF9"/><rect x="11" y="6" width="1" height="1" fill="#FFFFFF"/><rect x="12" y="6" width="1" height="1" fill="#FFFDF9"/><rect x="13" y="6" width="1" height="1" fill="#F2ECF9"/><rect x="14" y="6" width="1" height="1" fill="#FFFDF9"/><rect x="15" y="6" width="1" height="1" fill="#FFFFFF"/><rect x="16" y="6" width="1" height="1" fill="#FFFDF9"/><rect x="17" y="6" width="1" height="1" fill="#FFFFFF"/><rect x="4" y="7" width="1" height="1" fill="#FFFDF9"/><rect x="5" y="7" width="1" height="1" fill="#FFFFFF"/><rect x="6" y="7" width="1" height="1" fill="#F2ECF9"/><rect x="7" y="7" width="3" height="1" fill="#FFFDF9"/><rect x="10" y="7" width="1" height="1" fill="#F2ECF9"/><rect x="11" y="7" width="4" height="1" fill="#FFFDF9"/><rect x="15" y="7" width="1" height="1" fill="#FFFFFF"/><rect x="16" y="7" width="1" height="1" fill="#F2ECF9"/><rect x="17" y="7" width="1" height="1" fill="#FFFFFF"/><rect x="5" y="8" width="2" height="1" fill="#DCE6FB"/><rect x="7" y="8" width="1" height="1" fill="#EAF0FC"/><rect x="8" y="8" width="4" height="1" fill="#DCE6FB"/><rect x="12" y="8" width="1" height="1" fill="#EAF0FC"/><rect x="13" y="8" width="3" height="1" fill="#DCE6FB"/><rect x="16" y="8" width="1" height="1" fill="#EAF0FC"/><rect x="17" y="8" width="1" height="1" fill="#DCE6FB"/><rect x="6" y="9" width="1" height="1" fill="#DCE6FB"/><rect x="8" y="9" width="3" height="1" fill="#DCE6FB"/><rect x="11" y="9" width="1" height="1" fill="#EAF0FC"/><rect x="12" y="9" width="5" height="1" fill="#DCE6FB"/></g><g class="f" id="f4"><rect x="9" y="3" width="1" height="1" fill="#FFFDF9"/><rect x="10" y="3" width="1" height="1" fill="#F2ECF9"/><rect x="11" y="3" width="1" height="1" fill="#FFFDF9"/><rect x="12" y="3" width="1" height="1" fill="#F2ECF9"/><rect x="13" y="3" width="1" height="1" fill="#FFFDF9"/><rect x="14" y="3" width="1" height="1" fill="#F2ECF9"/><rect x="15" y="3" width="1" height="1" fill="#FFFFFF"/><rect x="4" y="4" width="1" height="1" fill="#FFFFFF"/><rect x="6" y="4" width="1" height="1" fill="#F2ECF9"/><rect x="7" y="4" width="2" height="1" fill="#FFFDF9"/><rect x="9" y="4" width="1" height="1" fill="#F2ECF9"/><rect x="10" y="4" width="2" height="1" fill="#FFFDF9"/><rect x="12" y="4" width="1" height="1" fill="#FFFFFF"/><rect x="13" y="4" width="1" height="1" fill="#FFFDF9"/><rect x="14" y="4" width="1" height="1" fill="#F2ECF9"/><rect x="15" y="4" width="2" height="1" fill="#FFFDF9"/><rect x="18" y="4" width="1" height="1" fill="#FFFDF9"/><rect x="3" y="5" width="2" height="1" fill="#FFFDF9"/><rect x="5" y="5" width="1" height="1" fill="#F2ECF9"/><rect x="6" y="5" width="4" height="1" fill="#FFFDF9"/><rect x="10" y="5" width="1" height="1" fill="#FFFFFF"/><rect x="11" y="5" width="3" height="1" fill="#FFFDF9"/><rect x="14" y="5" width="1" height="1" fill="#FFFFFF"/><rect x="15" y="5" width="1" height="1" fill="#FFFDF9"/><rect x="17" y="5" width="1" height="1" fill="#FFFDF9"/><rect x="4" y="6" width="2" height="1" fill="#FFFDF9"/><rect x="6" y="6" width="1" height="1" fill="#FFFFFF"/><rect x="7" y="6" width="6" height="1" fill="#FFFDF9"/><rect x="13" y="6" width="1" height="1" fill="#F2ECF9"/><rect x="14" y="6" width="1" height="1" fill="#FFFDF9"/><rect x="16" y="6" width="1" height="1" fill="#FFFDF9"/><rect x="3" y="7" width="1" height="1" fill="#F2ECF9"/><rect x="4" y="7" width="1" height="1" fill="#FFFFFF"/><rect x="5" y="7" width="2" height="1" fill="#FFFDF9"/><rect x="7" y="7" width="1" height="1" fill="#FFFFFF"/><rect x="8" y="7" width="4" height="1" fill="#FFFDF9"/><rect x="12" y="7" width="1" height="1" fill="#FFFFFF"/><rect x="13" y="7" width="3" height="1" fill="#FFFDF9"/><rect x="16" y="7" width="1" height="1" fill="#F2ECF9"/><rect x="17" y="7" width="1" height="1" fill="#FFFDF9"/><rect x="4" y="8" width="1" height="1" fill="#DCE6FB"/><rect x="5" y="8" width="3" height="1" fill="#EAF0FC"/><rect x="8" y="8" width="1" height="1" fill="#DCE6FB"/><rect x="9" y="8" width="3" height="1" fill="#EAF0FC"/><rect x="12" y="8" width="3" height="1" fill="#DCE6FB"/><rect x="15" y="8" width="1" height="1" fill="#EAF0FC"/><rect x="16" y="8" width="1" height="1" fill="#DCE6FB"/><rect x="7" y="9" width="1" height="1" fill="#DCE6FB"/><rect x="8" y="9" width="1" height="1" fill="#EAF0FC"/><rect x="9" y="9" width="1" height="1" fill="#DCE6FB"/><rect x="10" y="9" width="1" height="1" fill="#EAF0FC"/><rect x="11" y="9" width="2" height="1" fill="#DCE6FB"/><rect x="13" y="9" width="1" height="1" fill="#EAF0FC"/><rect x="14" y="9" width="2" height="1" fill="#DCE6FB"/><rect x="14" y="10" width="1" height="1" fill="#DCE6FB"/></g><g class="f" id="f5"><rect x="8" y="3" width="1" height="1" fill="#FFFDF9"/><rect x="10" y="3" width="1" height="1" fill="#FFFFFF"/><rect x="11" y="3" width="1" height="1" fill="#FFFDF9"/><rect x="12" y="3" width="1" height="1" fill="#F2ECF9"/><rect x="13" y="3" width="2" height="1" fill="#FFFDF9"/><rect x="16" y="3" width="1" height="1" fill="#FFFDF9"/><rect x="5" y="4" width="1" height="1" fill="#FFFDF9"/><rect x="7" y="4" width="10" height="1" fill="#FFFDF9"/><rect x="17" y="4" width="1" height="1" fill="#F2ECF9"/><rect x="4" y="5" width="1" height="1" fill="#FFFDF9"/><rect x="5" y="5" width="1" height="1" fill="#F2ECF9"/><rect x="6" y="5" width="4" height="1" fill="#FFFDF9"/><rect x="10" y="5" width="1" height="1" fill="#FFFFFF"/><rect x="11" y="5" width="3" height="1" fill="#FFFDF9"/><rect x="14" y="5" width="1" height="1" fill="#FFFFFF"/><rect x="15" y="5" width="1" height="1" fill="#F2ECF9"/><rect x="16" y="5" width="1" height="1" fill="#FFFDF9"/><rect x="18" y="5" width="1" height="1" fill="#FFFDF9"/><rect x="5" y="6" width="1" height="1" fill="#FFFDF9"/><rect x="6" y="6" width="1" height="1" fill="#FFFFFF"/><rect x="7" y="6" width="1" height="1" fill="#FFFDF9"/><rect x="8" y="6" width="2" height="1" fill="#FFFFFF"/><rect x="10" y="6" width="1" height="1" fill="#FFFDF9"/><rect x="11" y="6" width="1" height="1" fill="#FFFFFF"/><rect x="12" y="6" width="4" height="1" fill="#FFFDF9"/><rect x="16" y="6" width="1" height="1" fill="#FFFFFF"/><rect x="17" y="6" width="1" height="1" fill="#FFFDF9"/><rect x="4" y="7" width="5" height="1" fill="#FFFDF9"/><rect x="9" y="7" width="1" height="1" fill="#F2ECF9"/><rect x="10" y="7" width="1" height="1" fill="#FFFDF9"/><rect x="11" y="7" width="1" height="1" fill="#FFFFFF"/><rect x="12" y="7" width="5" height="1" fill="#FFFDF9"/><rect x="5" y="8" width="2" height="1" fill="#EAF0FC"/><rect x="7" y="8" width="2" height="1" fill="#DCE6FB"/><rect x="9" y="8" width="1" height="1" fill="#EAF0FC"/><rect x="10" y="8" width="1" height="1" fill="#DCE6FB"/><rect x="11" y="8" width="1" height="1" fill="#EAF0FC"/><rect x="12" y="8" width="3" height="1" fill="#DCE6FB"/><rect x="15" y="8" width="1" height="1" fill="#EAF0FC"/><rect x="6" y="9" width="5" height="1" fill="#DCE6FB"/><rect x="12" y="9" width="1" height="1" fill="#EAF0FC"/><rect x="13" y="9" width="2" height="1" fill="#DCE6FB"/><rect x="13" y="10" width="1" height="1" fill="#EAF0FC"/></g></svg>