<svg width="40" height="40" viewBox="0 0 40 40" fill="none" xmlns="http://www.w3.org/2000/svg">
<path d="M12 28.0003H16L26.5 17.5003C26.7626 17.2377 26.971 16.9259 27.1131 16.5827C27.2553 16.2395 27.3284 15.8717 27.3284 15.5003C27.3284 15.1289 27.2553 14.7611 27.1131 14.4179C26.971 14.0747 26.7626 13.7629 26.5 13.5003C26.2374 13.2377 25.9256 13.0293 25.5824 12.8872C25.2392 12.745 24.8714 12.6719 24.5 12.6719C24.1286 12.6719 23.7608 12.745 23.4176 12.8872C23.0744 13.0293 22.7626 13.2377 22.5 13.5003L12 24.0003V28.0003Z" stroke="#3A356E" stroke-width="2" stroke-linecap="round" stroke-linejoin="round"/>
<path d="M21.5 14.5L25.5 18.5" stroke="#3A356E" stroke-width="2" stroke-linecap="round" stroke-linejoin="round"/>
<path d="M24 27H30" stroke="#3A356E" stroke-width="2" stroke-linecap="round" stroke-linejoin="round"/>
<path d="M27 24V30" stroke="#3A356E" stroke-width="2" stroke-linecap="round" stroke-linejoin="round"/>
</svg>
