<svg width="40" height="40" viewBox="0 0 40 40" fill="none" xmlns="http://www.w3.org/2000/svg">
<path d="M23 16H23.01" stroke="#3A356E" stroke-width="2" stroke-linecap="round" stroke-linejoin="round"/>
<path d="M20.5 29H14C13.2044 29 12.4413 28.6839 11.8787 28.1213C11.3161 27.5587 11 26.7956 11 26V14C11 13.2044 11.3161 12.4413 11.8787 11.8787C12.4413 11.3161 13.2044 11 14 11H26C26.7956 11 27.5587 11.3161 28.1213 11.8787C28.6839 12.4413 29 13.2044 29 14V20.5" stroke="#3A356E" stroke-width="2" stroke-linecap="round" stroke-linejoin="round"/>
<path d="M11 23.9998L16 18.9998C16.928 18.1068 18.072 18.1068 19 18.9998L23 22.9998" stroke="#3A356E" stroke-width="2" stroke-linecap="round" stroke-linejoin="round"/>
<path d="M22 22.0004L23 21.0004C23.67 20.3564 24.45 20.1764 25.182 20.4604" stroke="#3A356E" stroke-width="2" stroke-linecap="round" stroke-linejoin="round"/>
<path d="M24 27H30" stroke="#3A356E" stroke-width="2" stroke-linecap="round" stroke-linejoin="round"/>
<path d="M27 24V30" stroke="#3A356E" stroke-width="2" stroke-linecap="round" stroke-linejoin="round"/>
</svg>
