<svg width="16" height="16" viewBox="0 0 16 16" fill="none" xmlns="http://www.w3.org/2000/svg">
<path d="M7.28001 15.36C7.13334 14.4933 6.74667 13.56 6.12 12.56C5.49334 11.5467 4.6 10.6067 3.44 9.74C2.29334 8.87333 1.14667 8.32 0 8.08V7.24C1.13333 6.97333 2.22 6.48 3.26 5.76C4.31334 5.02667 5.19333 4.14667 5.9 3.12C6.62 2.06667 7.08001 1.02667 7.28001 0H8.12C8.24 0.666666 8.48 1.35333 8.84 2.06C9.2 2.75333 9.66 3.42 10.22 4.06C10.7933 4.68667 11.4333 5.25333 12.14 5.76C13.1933 6.50667 14.2667 7 15.36 7.24V8.08C14.6267 8.22667 13.8667 8.52667 13.08 8.98C12.3067 9.43333 11.5867 9.97333 10.92 10.6C10.2533 11.2133 9.70667 11.86 9.28001 12.54C8.65334 13.54 8.26667 14.48 8.12 15.36H7.28001Z" fill="#EE8654"/>
</svg>
