<svg width="24" height="24" viewBox="0 0 24 24" fill="none" xmlns="http://www.w3.org/2000/svg">
<g clip-path="url(#clip0_242_7904)">
<path d="M10 22.5C14.6944 22.5 18.5 18.6944 18.5 14C18.5 9.30558 14.6944 5.5 10 5.5C5.30558 5.5 1.5 9.30558 1.5 14C1.5 18.6944 5.30558 22.5 10 22.5Z" stroke="#3A356E" stroke-width="1.7" stroke-linecap="round" stroke-linejoin="round"/>
<path d="M7 12H7.01M13 12H13.01M6.5 16C6.84592 16.6252 7.35299 17.1463 7.96849 17.5092C8.584 17.8721 9.28548 18.0635 10 18.0635C10.7145 18.0635 11.416 17.8721 12.0315 17.5092C12.647 17.1463 13.1541 16.6252 13.5 16" stroke="#3A356E" stroke-width="1.7" stroke-linecap="round" stroke-linejoin="round"/>
<path d="M20.902 7.9631C20.3645 8.05788 19.8519 7.69896 19.7571 7.16143C19.7272 6.8304 19.7318 6.75963 19.7962 6.41465C19.8883 6.12937 20.0191 5.83727 20.1774 5.57259C20.3339 5.29747 20.5079 5.05693 20.6994 4.85098C20.9001 4.63264 21.086 4.42766 21.2572 4.23604C21.4285 4.04442 21.5592 3.84918 21.6494 3.65032C21.7489 3.43908 21.7765 3.20821 21.7323 2.95771C21.6716 2.61328 21.4939 2.38093 21.1994 2.26068C20.9159 2.13848 20.5477 2.11731 20.0948 2.19717C19.5203 2.29846 19.1144 2.51532 18.8769 2.84777C18.838 2.90225 18.804 2.96006 18.7749 3.02123C18.5065 3.58549 18.1707 4.22105 17.5508 4.29916C17.0376 4.3638 16.5138 4.05952 16.4611 3.545C16.4207 3.15108 16.4967 2.86878 16.6456 2.49865C16.8812 1.89747 17.2725 1.40339 17.8193 1.0164C18.3661 0.629414 19.0262 0.367748 19.7994 0.231404C20.429 0.120381 21.032 0.116304 21.6082 0.219173C22.1845 0.322042 22.6778 0.568662 23.0884 0.959035C23.5081 1.33702 23.7824 1.89132 23.9112 2.62194C23.9922 3.08118 23.994 3.47905 23.9167 3.81555C23.8393 4.15204 23.715 4.44838 23.5438 4.70457C23.3836 4.95882 23.2022 5.18989 22.9997 5.39779C22.8082 5.60375 22.6232 5.81394 22.4446 6.02839C22.2752 6.23044 22.1436 6.45275 22.0497 6.69531C22.0473 6.70149 22.045 6.70784 22.0427 6.71436C21.8528 7.26649 21.5669 7.84586 20.9919 7.94725L20.902 7.9631ZM21.5288 11.3556C20.9149 11.4638 20.3295 11.0539 20.2212 10.44C20.113 9.82607 20.5229 9.24065 21.1368 9.1324L21.2555 9.11147C21.8694 9.00322 22.4549 9.41314 22.5631 10.027C22.6714 10.641 22.2614 11.2264 21.6475 11.3346L21.5288 11.3556Z" fill="#3A356E"/>
</g>
<defs>
<clipPath id="clip0_242_7904">
<rect width="24" height="24" fill="white"/>
</clipPath>
</defs>
</svg>
