<svg xmlns="http://www.w3.org/2000/svg" viewBox="0 0 140 120" fill="none">
<g stroke-linejoin="round" stroke-linecap="round">
<path d="M12 104 H128" stroke="#1C1746" stroke-width="3" opacity="0.25"></path>
<g class="snail">
 <path d="M28 100 Q24 84 40 82 q30 -4 62 0 q14 2 12 18 Z" fill="#85D2AD" stroke="#1C1746" stroke-width="4"></path>
 <g class="ant">
  <path d="M34 82 q-4 -12 -12 -16 M42 80 q0 -12 -6 -20" stroke="#1C1746" stroke-width="3" fill="none"></path>
  <circle cx="21" cy="65" r="3.4" fill="#1C1746"></circle><circle cx="35" cy="59" r="3.4" fill="#1C1746"></circle>
 </g>
  <ellipse cx="33" cy="90" rx="4.8" ry="5.376" fill="#fff" stroke="#1C1746" stroke-width="3.2"></ellipse>
  <ellipse cx="47" cy="90" rx="4.8" ry="5.376" fill="#fff" stroke="#1C1746" stroke-width="3.2"></ellipse>
  <circle cx="32" cy="91.344" r="2.016" fill="#1C1746"></circle>
  <circle cx="46" cy="91.344" r="2.016" fill="#1C1746"></circle>
  <circle cx="32.04" cy="88.56" r="0.864" fill="#fff"></circle>
  <circle cx="46.04" cy="88.56" r="0.864" fill="#fff"></circle>
 <path d="M34 99 q4 3 8 0" stroke="#1C1746" stroke-width="2.8" fill="none"></path>
 <g class="shell">
  <circle cx="86" cy="66" r="30" fill="#F5C659" stroke="#1C1746" stroke-width="4"></circle>
  <path d="M86 66 a16 16 0 0 1 16 14 a24 24 0 0 1 -32 -6 a12 12 0 0 1 16 -8" fill="none" stroke="#1C1746" stroke-width="3" opacity="0.65"></path>
  <rect x="74" y="46" width="26" height="18" rx="2.5" fill="#FFFDF8" stroke="#1C1746" stroke-width="3" transform="rotate(-12 87 55)"></rect>
  <path d="M76 49 l11 7 11 -7" stroke="#1C1746" stroke-width="2.4" fill="none" transform="rotate(-12 87 55)"></path>
 </g>
</g>
</g></svg>
