<svg width="140" height="120" viewBox="0 0 140 120" fill="none" xmlns="http://www.w3.org/2000/svg">
<path opacity="0.25" d="M12 104H128" stroke="#1C1746" stroke-width="3" stroke-linecap="round" stroke-linejoin="round"/>
<path d="M28 100C25.3333 89.3333 29.3333 83.3333 40 82C60 79.3333 80.6666 79.3333 102 82C111.333 83.3333 115.333 89.3333 114 100H28Z" fill="#85D2AD" stroke="#1C1746" stroke-width="4" stroke-linecap="round" stroke-linejoin="round"/>
<path d="M34 82C31.3333 74 27.3333 68.6667 22 66M42 80C42 72 40 65.3333 36 60" stroke="#1C1746" stroke-width="3" stroke-linecap="round" stroke-linejoin="round"/>
<path d="M21 68.4C22.8777 68.4 24.4 66.8777 24.4 65C24.4 63.1222 22.8777 61.6 21 61.6C19.1222 61.6 17.6 63.1222 17.6 65C17.6 66.8777 19.1222 68.4 21 68.4Z" fill="#1C1746"/>
<path d="M35 62.4C36.8777 62.4 38.4 60.8777 38.4 59C38.4 57.1222 36.8777 55.6 35 55.6C33.1222 55.6 31.6 57.1222 31.6 59C31.6 60.8777 33.1222 62.4 35 62.4Z" fill="#1C1746"/>
<path d="M32 94C34.7614 94 37 91.5376 37 88.5C37 85.4624 34.7614 83 32 83C29.2386 83 27 85.4624 27 88.5C27 91.5376 29.2386 94 32 94Z" fill="white" stroke="#1C1746" stroke-width="2.6" stroke-linecap="round" stroke-linejoin="round"/>
<path d="M46 94C48.7614 94 51 91.5376 51 88.5C51 85.4624 48.7614 83 46 83C43.2386 83 41 85.4624 41 88.5C41 91.5376 43.2386 94 46 94Z" fill="white" stroke="#1C1746" stroke-width="2.6" stroke-linecap="round" stroke-linejoin="round"/>
<path d="M31 91.36C32.1134 91.36 33.016 90.4574 33.016 89.344C33.016 88.2306 32.1134 87.328 31 87.328C29.8866 87.328 28.984 88.2306 28.984 89.344C28.984 90.4574 29.8866 91.36 31 91.36Z" fill="#1C1746"/>
<path d="M45 91.36C46.1134 91.36 47.016 90.4574 47.016 89.344C47.016 88.2306 46.1134 87.328 45 87.328C43.8866 87.328 42.984 88.2306 42.984 89.344C42.984 90.4574 43.8866 91.36 45 91.36Z" fill="#1C1746"/>
<path d="M32.04 89.424C32.5172 89.424 32.904 89.0372 32.904 88.56C32.904 88.0828 32.5172 87.696 32.04 87.696C31.5629 87.696 31.176 88.0828 31.176 88.56C31.176 89.0372 31.5629 89.424 32.04 89.424Z" fill="white"/>
<path d="M46.04 89.424C46.5172 89.424 46.904 89.0372 46.904 88.56C46.904 88.0828 46.5172 87.696 46.04 87.696C45.5629 87.696 45.176 88.0828 45.176 88.56C45.176 89.0372 45.5629 89.424 46.04 89.424Z" fill="white"/>
<path d="M34 99C36.6667 101 39.3333 101 42 99" stroke="#1C1746" stroke-width="2.8" stroke-linecap="round" stroke-linejoin="round"/>
<path d="M86 96C102.569 96 116 82.5685 116 66C116 49.4315 102.569 36 86 36C69.4315 36 56 49.4315 56 66C56 82.5685 69.4315 96 86 96Z" fill="#F5C659" stroke="#1C1746" stroke-width="4" stroke-linecap="round" stroke-linejoin="round"/>
<path opacity="0.65" d="M93.6615 74.7926C90.7123 72.2121 87.4187 74.7619 83.5 74.7926C81.9305 74.1704 79.7473 69.9282 78.0605 70.0009C76.3737 70.0737 74.7213 70.5016 73.2112 71.2567C71.701 72.0117 70.3673 73.0769 69.297 74.3827C68.2267 75.6885 67.1169 77.6153 66.673 79.2442C70.2762 84.0835 75.5699 87.3881 81.5 88.5C87.4301 89.6119 93.5614 88.4495 98.673 85.2442C98.1832 81.3562 96.6107 77.3732 93.6615 74.7926Z" stroke="#1C1746" stroke-width="2.6" stroke-linecap="round" stroke-linejoin="round"/>
<path d="M94.9865 49.5198L74.4454 53.8859C73.0948 54.173 72.2327 55.5005 72.5198 56.8511L75.2226 69.567C75.5097 70.9175 76.8372 71.7796 78.1878 71.4926L98.7289 67.1264C100.079 66.8394 100.942 65.5118 100.654 64.1613L97.9516 51.4454C97.6646 50.0948 96.337 49.2327 94.9865 49.5198Z" fill="#FFFDF8" stroke="#1C1746" stroke-width="3" stroke-linecap="round" stroke-linejoin="round"/>
<path d="M74.5801 56.9243L86.7951 61.4843L96.0993 52.3503" stroke="#1C1746" stroke-width="2.4" stroke-linecap="round" stroke-linejoin="round"/>
</svg>
