<svg xmlns="http://www.w3.org/2000/svg" viewBox="0 0 140 120" fill="none">
<g stroke-linejoin="round" stroke-linecap="round">
<g class="receipt">
 <rect x="18" y="34" width="30" height="42" rx="3" fill="#FFFDF8" stroke="#1C1746" stroke-width="3.2" transform="rotate(-8 33 55)"></rect>
 <path d="M25 44 l16 -2 M26 52 l16 -2 M27 60 l10 -1.5" stroke="#1C1746" stroke-width="2.4" transform="rotate(-8 33 55)"></path>
 <path d="M27 68 l14 -2" stroke="#EC5A44" stroke-width="3" transform="rotate(-8 33 55)"></path>
 <circle cx="44" cy="66" r="7.5" fill="none" stroke="#EC5A44" stroke-width="2.8"></circle>
</g>
<path d="M56 92 l-10 8 M60 96 l-6 10 M84 96 l6 10 M88 92 l10 8" stroke="#1C1746" stroke-width="3.6"></path>
<ellipse cx="72" cy="82" rx="30" ry="21" fill="#EC5A44" stroke="#1C1746" stroke-width="4"></ellipse>
<path d="M62 52 V70 M82 52 V70" stroke="#1C1746" stroke-width="3.4"></path>
  <ellipse cx="62" cy="48" rx="7" ry="7.84" fill="#fff" stroke="#1C1746" stroke-width="3.2"></ellipse>
  <ellipse cx="82" cy="48" rx="7" ry="7.84" fill="#fff" stroke="#1C1746" stroke-width="3.2"></ellipse>
  <circle cx="61" cy="49.96" r="2.94" fill="#1C1746"></circle>
  <circle cx="81" cy="49.96" r="2.94" fill="#1C1746"></circle>
  <circle cx="60.6" cy="45.9" r="1.26" fill="#fff"></circle>
  <circle cx="80.6" cy="45.9" r="1.26" fill="#fff"></circle>
<path d="M64 84 Q72 92 80 84" fill="none" stroke="#1C1746" stroke-width="3.2" stroke-linecap="round"></path> <circle cx="54" cy="82" r="3.2" fill="#EC5A44" opacity="0.5"></circle><circle cx="90" cy="82" r="3.2" fill="#EC5A44" opacity="0.5"></circle>
<g class="claw">
 <path d="M48 70 Q36 62 40 52 Q48 48 52 56 Q46 58 48 62 Q52 66 56 62" fill="#F27A66" stroke="#1C1746" stroke-width="3.4"></path>
</g>
<path d="M96 70 Q110 64 108 54 Q100 48 94 58 Q100 60 98 64" fill="#F27A66" stroke="#1C1746" stroke-width="3.4"></path>
</g></svg>
