<svg width="140" height="120" viewBox="0 0 140 120" fill="none" xmlns="http://www.w3.org/2000/svg">
<path d="M44 78C34.6667 87.3333 26 89.3333 18 84" stroke="#1C1746" stroke-width="3.6" stroke-linecap="round" stroke-linejoin="round"/>
<path d="M22.4474 56.8235L6.69051 59.6019C5.05882 59.8896 3.96932 61.4456 4.25703 63.0773L8.07729 84.743C8.365 86.3747 9.92097 87.4642 11.5527 87.1765L27.3096 84.3981C28.9413 84.1104 30.0308 82.5544 29.7431 80.9228L25.9228 59.257C25.6351 57.6253 24.0791 56.5358 22.4474 56.8235Z" fill="#FFFDF8" stroke="#1C1746" stroke-width="3" stroke-linecap="round" stroke-linejoin="round"/>
<path d="M10.0493 67.133L22.5913 63.3984M12.076 72.8682L24.618 69.1336M14.1027 78.6034L21.8075 76.2295" stroke="#5C7BEB" stroke-width="2.2" stroke-linecap="round" stroke-linejoin="round"/>
<path d="M70 84C70 93.3333 70 100 70 104" stroke="#1C1746" stroke-width="3.6" stroke-linecap="round" stroke-linejoin="round"/>
<path d="M79 96H61C59.3431 96 58 97.3431 58 99V113C58 114.657 59.3431 116 61 116H79C80.6569 116 82 114.657 82 113V99C82 97.3431 80.6569 96 79 96Z" fill="#FFFDF8" stroke="#1C1746" stroke-width="3" stroke-linecap="round" stroke-linejoin="round"/>
<path d="M63 103H77M63 109H73" stroke="#EE8654" stroke-width="2.2" stroke-linecap="round" stroke-linejoin="round"/>
<path d="M96 78C105.333 87.3333 114 89.3333 122 84" stroke="#1C1746" stroke-width="3.6" stroke-linecap="round" stroke-linejoin="round"/>
<path d="M133.309 59.6019L117.553 56.8235C115.921 56.5358 114.365 57.6253 114.077 59.257L110.257 80.9228C109.969 82.5544 111.059 84.1104 112.69 84.3981L128.447 87.1765C130.079 87.4642 131.635 86.3747 131.923 84.743L135.743 63.0772C136.031 61.4456 134.941 59.8896 133.309 59.6019Z" fill="#FFFDF8" stroke="#1C1746" stroke-width="3" stroke-linecap="round" stroke-linejoin="round"/>
<path d="M118.133 65.0493L131.196 65.8295M117.902 72.1166L130.965 72.8968M117.672 79.1839L125.724 79.5882" stroke="#EC5A44" stroke-width="2.2" stroke-linecap="round" stroke-linejoin="round"/>
<path d="M52 82C48 88.6667 43.3333 92 38 92M88 82C92 88.6667 96.6667 92 102 92" stroke="#1C1746" stroke-width="3.6" stroke-linecap="round" stroke-linejoin="round"/>
<path d="M40 62C40 54.0435 43.1607 46.4129 48.7868 40.7868C54.4129 35.1607 62.0435 32 70 32C77.9565 32 85.5871 35.1607 91.2132 40.7868C96.8393 46.4129 100 54.0435 100 62V76C94.6667 81.3333 89.3333 81.3333 84 76C79.3333 81.3333 74.6667 84 70 84C65.3333 84 60.6667 81.3333 56 76C50.6667 81.3333 45.3333 81.3333 40 76V62Z" fill="#A688E4" stroke="#1C1746" stroke-width="4" stroke-linecap="round" stroke-linejoin="round"/>
<path d="M58 59.4C62.1421 59.4 65.5 55.6392 65.5 51C65.5 46.3608 62.1421 42.6 58 42.6C53.8579 42.6 50.5 46.3608 50.5 51C50.5 55.6392 53.8579 59.4 58 59.4Z" fill="white" stroke="#1C1746" stroke-width="3.2" stroke-linecap="round" stroke-linejoin="round"/>
<path d="M82 59.4C86.1421 59.4 89.5 55.6392 89.5 51C89.5 46.3608 86.1421 42.6 82 42.6C77.8579 42.6 74.5 46.3608 74.5 51C74.5 55.6392 77.8579 59.4 82 59.4Z" fill="white" stroke="#1C1746" stroke-width="3.2" stroke-linecap="round" stroke-linejoin="round"/>
<path d="M58.0001 56.25C59.7398 56.25 61.1501 54.8397 61.1501 53.1C61.1501 51.3603 59.7398 49.95 58.0001 49.95C56.2604 49.95 54.8501 51.3603 54.8501 53.1C54.8501 54.8397 56.2604 56.25 58.0001 56.25Z" fill="#1C1746"/>
<path d="M82.0001 56.25C83.7398 56.25 85.1501 54.8397 85.1501 53.1C85.1501 51.3603 83.7398 49.95 82.0001 49.95C80.2604 49.95 78.8501 51.3603 78.8501 53.1C78.8501 54.8397 80.2604 56.25 82.0001 56.25Z" fill="#1C1746"/>
<path d="M56.5 52.1C57.2456 52.1 57.85 51.4956 57.85 50.75C57.85 50.0044 57.2456 49.4 56.5 49.4C55.7544 49.4 55.15 50.0044 55.15 50.75C55.15 51.4956 55.7544 52.1 56.5 52.1Z" fill="white"/>
<path d="M80.5 52.1C81.2456 52.1 81.85 51.4956 81.85 50.75C81.85 50.0044 81.2456 49.4 80.5 49.4C79.7544 49.4 79.15 50.0044 79.15 50.75C79.15 51.4956 79.7544 52.1 80.5 52.1Z" fill="white"/>
<path d="M62 66C67.3333 71.3333 72.6667 71.3333 78 66" stroke="#1C1746" stroke-width="3.2" stroke-linecap="round" stroke-linejoin="round"/>
<path opacity="0.5" d="M49 65.2C50.7674 65.2 52.2001 63.7673 52.2001 62C52.2001 60.2327 50.7674 58.8 49 58.8C47.2327 58.8 45.8 60.2327 45.8 62C45.8 63.7673 47.2327 65.2 49 65.2Z" fill="#EC5A44"/>
<path opacity="0.5" d="M91 65.2C92.7674 65.2 94.2 63.7673 94.2 62C94.2 60.2327 92.7674 58.8 91 58.8C89.2327 58.8 87.8 60.2327 87.8 62C87.8 63.7673 89.2327 65.2 91 65.2Z" fill="#EC5A44"/>
<path opacity="0.5" d="M62.6823 38.3982C65.3086 37.5449 67.2301 36.2145 66.9741 35.4266C66.7181 34.6387 64.3816 34.6918 61.7553 35.5451C59.129 36.3984 57.2075 37.7289 57.4635 38.5167C57.7195 39.3046 60.0561 39.2516 62.6823 38.3982Z" fill="white"/>
<path opacity="0.5" d="M72 37C73.1046 37 74 36.3284 74 35.5C74 34.6716 73.1046 34 72 34C70.8954 34 70 34.6716 70 35.5C70 36.3284 70.8954 37 72 37Z" fill="white"/>
</svg>
